<?xml version='1.0' encoding='UTF-8'?>
<!DOCTYPE svg PUBLIC "-//W3C//DTD SVG 1.0//EN" "http://www.w3.org/TR/2001/REC-SVG-20010904/DTD/svg10.dtd">
<svg xmlns:svg="http://www.w3.org/2000/svg" xmlns="http://www.w3.org/2000/svg" version="1.0" width="320" height="320" id="svg2">
  <defs id="defs4"/>
  <svg:path d="M 131.60087,181.31159 L 69.97299,257.62001 L 65.44288,263.19827 L 59.885447,267.42201 L 52.986033,269.53125 L 45.663807,269.42153 L 38.851616,267.12524 L 33.104189,262.78791 L 28.902861,256.70061 L 26.677963,249.64945 L 26.834933,242.67425 L 29.567773,236.58472 L 34.162548,231.27636 L 39.756076,226.40835 L 40.930254,225.46186 L 131.60087,181.31159 z M 159.60212,156.05108 C 161.79918,155.83146 163.76054,157.43633 163.98017,159.63337 C 164.19979,161.83043 162.59492,163.79179 160.39788,164.01142 C 158.20082,164.23104 156.23946,162.62617 156.01983,160.42913 C 155.80021,158.23207 157.40508,156.27071 159.60212,156.05108 z" id="path28209" style="fill:#a30075;fill-opacity:1;fill-rule:evenodd;stroke:none"/>
<path d="M 197.075,41.89375 L 191.48125,58.6125 L 184.95,56.51875 L 154.48125,124.58125 L 124.7,157.175 L 116.91875,157.175 L 116.79375,162.83125 L 147.85625,162.83125 C 149.14357,168.3642 154.08952,172.48749 160.0125,172.4875 C 165.93745,172.4875 170.88345,168.36698 172.16875,162.83125 L 196.29375,162.83125 L 196.29375,157.175 L 188.5125,157.175 L 186.04375,134.83125 L 202.66875,62.20625 L 195.5125,59.925 L 201.10625,43.2375 L 197.075,41.89375 z M 189.2,65.01875 L 194.16875,66.8 L 178.95,134.83125 L 181.41875,157.175 L 172.16875,157.175 C 170.88624,151.63544 165.94017,147.4875 160.0125,147.4875 C 154.08674,147.4875 149.14072,151.63813 147.85625,157.175 L 134.2625,157.175 L 160.5125,128.8 L 189.2,65.01875 z M 167.5,160 C 167.5,164.14 164.14,167.5 160,167.5 C 155.86,167.5 152.5,164.14 152.5,160 C 152.5,155.86 155.86,152.5 160,152.5 C 164.14,152.5 167.5,155.86 167.5,160 z M 206,5.6875 C 196.64334,5.6875 189,13.330843 189,22.6875 C 189,32.044157 196.64334,39.6875 206,39.6875 C 215.35666,39.6875 223,32.044157 223,22.6875 C 223,13.330843 215.35666,5.6875001 206,5.6875 z M 206,10.6875 C 212.65134,10.6875 218,16.036157 218,22.6875 C 218,29.338843 212.65134,34.6875 206,34.6875 C 199.34866,34.6875 194,29.338843 194,22.6875 C 194,16.036157 199.34866,10.6875 206,10.6875 z" id="path13269" style="fill:#000407;fill-opacity:1;fill-rule:evenodd;stroke:none"/>
</svg>