<?xml version="1.0" encoding="UTF-8" standalone="no"?>
<!DOCTYPE svg PUBLIC "-//W3C//DTD SVG 1.0//EN" "http://www.w3.org/TR/2001/REC-SVG-20010904/DTD/svg10.dtd">
<svg
   xmlns:svg="http://www.w3.org/2000/svg"
   xmlns="http://www.w3.org/2000/svg"
   version="1.0"
   width="320"
   height="320"
   id="svg2">
  <defs
     id="defs4" />
  <path
     d="M 197.075,41.89375 L 191.48125,58.6125 L 184.95,56.51875 L 154.48125,124.58125 L 124.7,157.175 L 116.91875,157.175 L 116.79375,162.83125 L 147.85625,162.83125 C 149.14357,168.3642 154.08952,172.48749 160.0125,172.4875 C 165.93745,172.4875 170.88345,168.36698 172.16875,162.83125 L 196.29375,162.83125 L 196.29375,157.175 L 188.5125,157.175 L 186.04375,134.83125 L 202.66875,62.20625 L 195.5125,59.925 L 201.10625,43.2375 L 197.075,41.89375 z M 167.5,160 C 167.5,164.14 164.14,167.5 160,167.5 C 155.86,167.5 152.5,164.14 152.5,160 C 152.5,155.86 155.86,152.5 160,152.5 C 164.14,152.5 167.5,155.86 167.5,160 z M 206,5.6875 C 196.64334,5.6875 189,13.330843 189,22.6875 C 189,32.044157 196.64334,39.6875 206,39.6875 C 215.35666,39.6875 223,32.044157 223,22.6875 C 223,13.330843 215.35666,5.6875001 206,5.6875 z"
     id="path13269"
     style="fill:#000407;fill-opacity:1;fill-rule:evenodd;stroke:none" />
</svg>
